<?xml version="1.0" encoding="utf-8"?>
<!-- Generator: Adobe Illustrator 24.3.0, SVG Export Plug-In . SVG Version: 6.00 Build 0)  -->
<svg version="1.1" id="Layer_1" xmlns="http://www.w3.org/2000/svg" xmlns:xlink="http://www.w3.org/1999/xlink" x="0px" y="0px"
	 viewBox="0 0 86.6 65.6" style="enable-background:new 0 0 86.6 65.6;" xml:space="preserve">
<style type="text/css">
	.st0{fill:#382B1E;}
</style>
<path class="st0" d="M9.7,46.8c-0.9,1.2-2.6,1.4-3.7,0.5c-1.2-0.9-1.4-2.6-0.5-3.7C6.5,42.2,8,41,9.6,40.3c1.6-0.7,3.4-1.2,5.2-1.2
	c0.5,0,0.9,0,1.4,0.1c0.7-6.4,3.5-12.1,7.9-16.5l0.2-0.1c4.9-4.9,11.7-7.9,19.2-7.9c7.6,0,14.4,3.1,19.3,8l0.1,0.2
	c4.2,4.3,7,10,7.7,16.3c0.4,0,0.9-0.1,1.4-0.1c1.8,0,3.6,0.4,5.2,1.2c1.6,0.8,3,1.9,4.1,3.3c0.9,1.2,0.7,2.8-0.5,3.7
	c-1.2,0.9-2.8,0.7-3.7-0.5c-0.5-0.7-1.3-1.3-2.1-1.7c-0.9-0.4-1.9-0.6-2.9-0.6c-1.1,0-2.1,0.2-2.9,0.6c-0.8,0.4-1.6,1-2.1,1.7
	c-1.1,1.4-2.5,2.5-4.1,3.3c-1.6,0.7-3.4,1.2-5.2,1.2c-1.8,0-3.6-0.4-5.2-1.2c-1.6-0.8-3-1.9-4.1-3.3c-0.5-0.7-1.3-1.3-2.1-1.7
	c-0.9-0.4-1.9-0.6-2.9-0.6s-2.1,0.2-2.9,0.6c-0.8,0.4-1.6,1-2.1,1.7c-1.1,1.4-2.5,2.5-4.1,3.3c-1.6,0.7-3.4,1.2-5.2,1.2
	c-1.8,0-3.6-0.4-5.2-1.2c-1.6-0.8-3-1.9-4.1-3.3c-0.5-0.7-1.2-1.3-2.1-1.7c-0.9-0.4-1.9-0.6-2.9-0.6s-2.1,0.2-2.9,0.6
	C11,45.5,10.3,46.1,9.7,46.8L9.7,46.8z M21.3,9.3c-0.7-1.3-0.3-2.9,1-3.6c1.3-0.7,2.9-0.3,3.6,1l2.9,5c0.7,1.3,0.3,2.9-1,3.6
	c-1.3,0.7-2.9,0.3-3.6-1L21.3,9.3z M73.8,27.5c-1.3,0.7-2.9,0.3-3.6-1c-0.7-1.3-0.3-2.9,1-3.6l5-2.9c1.3-0.7,2.9-0.3,3.6,1
	c0.7,1.3,0.3,2.9-1,3.6L73.8,27.5z M62.4,14.2c-0.7,1.3-2.4,1.7-3.6,1c-1.3-0.7-1.7-2.4-1-3.6l2.9-5c0.7-1.3,2.4-1.7,3.6-1
	c1.3,0.7,1.7,2.4,1,3.6L62.4,14.2z M7.8,24.7c-1.3-0.7-1.7-2.4-1-3.6c0.7-1.3,2.4-1.7,3.6-1l5,2.9c1.3,0.7,1.7,2.4,1,3.6
	c-0.7,1.3-2.4,1.7-3.6,1L7.8,24.7z M40.6,2.7c0-1.5,1.2-2.7,2.7-2.7S46,1.2,46,2.7v5.7c0,1.5-1.2,2.7-2.7,2.7s-2.7-1.2-2.7-2.7V2.7z
	 M21.3,41.1c1,0.7,1.9,1.5,2.7,2.5c0.5,0.7,1.3,1.3,2.1,1.7c0.9,0.4,1.9,0.6,2.9,0.6s2.1-0.2,2.9-0.6c0.8-0.4,1.6-1,2.1-1.7
	c1.1-1.4,2.5-2.5,4.1-3.3c1.6-0.7,3.4-1.2,5.2-1.2c1.8,0,3.6,0.4,5.2,1.2c1.6,0.8,3,1.9,4.1,3.3c0.5,0.7,1.3,1.3,2.1,1.7
	c0.9,0.4,1.9,0.6,2.9,0.6c1.1,0,2.1-0.2,2.9-0.6c0.8-0.4,1.6-1,2.1-1.7c0.7-1,1.7-1.8,2.7-2.5C65,35.5,62.7,30.4,59,26.7l-0.1-0.1
	c-4-4-9.5-6.4-15.6-6.4c-6,0-11.5,2.4-15.4,6.3l-0.1,0.1C24,30.3,21.6,35.4,21.3,41.1L21.3,41.1z M4.7,61.3c-1,1.1-2.6,1.2-3.8,0.3
	s-1.2-2.6-0.3-3.8c1.2-1.4,2.7-2.4,4.5-3.2c1.7-0.7,3.7-1.1,5.6-1.1s3.9,0.4,5.6,1.1c1.8,0.7,3.3,1.8,4.5,3.2
	c0.6,0.7,1.5,1.3,2.5,1.7c1.1,0.4,2.3,0.7,3.6,0.7c1.3,0,2.5-0.2,3.6-0.7c1-0.4,1.9-1,2.5-1.7c1.2-1.4,2.7-2.4,4.5-3.2
	c1.7-0.7,3.7-1.1,5.6-1.1c2,0,3.9,0.4,5.6,1.1c1.8,0.7,3.3,1.8,4.5,3.2c0.6,0.7,1.5,1.3,2.5,1.7c1.1,0.4,2.3,0.7,3.6,0.7
	c1.3,0,2.5-0.2,3.6-0.7c1-0.4,1.9-1,2.5-1.7c1.2-1.4,2.7-2.4,4.5-3.2c1.7-0.7,3.7-1.1,5.6-1.1c2,0,3.9,0.4,5.6,1.1
	c1.8,0.7,3.3,1.8,4.5,3.2c1,1.1,0.8,2.8-0.3,3.8c-1.1,1-2.8,0.8-3.8-0.3c-0.6-0.7-1.5-1.3-2.5-1.7c-1.1-0.4-2.3-0.7-3.6-0.7
	c-1.3,0-2.5,0.2-3.6,0.7c-1,0.4-1.9,1-2.5,1.7c-1.2,1.4-2.7,2.4-4.5,3.2c-1.7,0.7-3.7,1.1-5.6,1.1s-3.9-0.4-5.6-1.1
	c-1.8-0.7-3.3-1.8-4.5-3.2c-0.6-0.7-1.5-1.3-2.5-1.7c-1.1-0.4-2.3-0.7-3.6-0.7c-1.3,0-2.5,0.2-3.6,0.7c-1,0.4-1.9,1-2.5,1.7
	c-1.2,1.4-2.7,2.4-4.5,3.2c-1.7,0.7-3.7,1.1-5.6,1.1s-3.9-0.4-5.6-1.1c-1.8-0.7-3.3-1.8-4.5-3.2c-0.6-0.7-1.5-1.3-2.5-1.7
	c-1.1-0.4-2.3-0.7-3.6-0.7c-1.3,0-2.5,0.2-3.6,0.7C6.2,60,5.3,60.6,4.7,61.3L4.7,61.3z"/>
</svg>
