<?xml version="1.0" encoding="utf-8"?>
<!-- Generator: Adobe Illustrator 24.3.0, SVG Export Plug-In . SVG Version: 6.00 Build 0)  -->
<svg version="1.1" id="Layer_1" xmlns="http://www.w3.org/2000/svg" xmlns:xlink="http://www.w3.org/1999/xlink" x="0px" y="0px"
	 viewBox="0 0 70.5 49.8" style="enable-background:new 0 0 70.5 49.8;" xml:space="preserve">
<style type="text/css">
	.st0{fill:#382B1E;}
</style>
<path class="st0" d="M69.6,0H0.8C0.4,0,0,0.4,0,0.9v42.8c0,0.5,0.4,0.9,0.8,0.9H3v4.4c0,0.5,0.4,0.9,0.8,0.9h5.6
	c0.5,0,0.8-0.4,0.8-0.9v-4.4h50v4.4c0,0.5,0.4,0.9,0.8,0.9h5.6c0.5,0,0.8-0.4,0.8-0.9v-4.4h2.2c0.5,0,0.8-0.4,0.8-0.9V0.9
	C70.5,0.4,70.1,0,69.6,0L69.6,0z M8.6,48.1H4.7v-3.5h3.9V48.1z M65.8,48.1h-3.9v-3.5h3.9V48.1z M68.8,6.7H36.1V1.7h32.7V6.7z
	 M34.4,1.7v4.9H1.7V1.7H34.4z M1.7,42.8V8.4h67.1v34.4H1.7z M42.4,20.1c0.5,0.1,0.8,0.5,0.7,1c-0.1,0.4-0.4,0.8-0.8,0.8
	c0,0-0.1,0-0.1,0L40,21.6L36.7,24l3.3,2.4l2.2-0.3c0.5-0.1,0.9,0.3,0.9,0.7c0.1,0.5-0.3,0.9-0.7,1L40.8,28l0.3,1.6
	c0.1,0.5-0.2,0.9-0.6,1c-0.1,0-0.1,0-0.2,0c-0.4,0-0.7-0.3-0.8-0.7L39,27.8l-3-2.1v2.7l1.4,1.7c0.3,0.4,0.3,0.9-0.1,1.2
	c-0.2,0.1-0.4,0.2-0.6,0.2c-0.2,0-0.5-0.1-0.6-0.3l-1-1.2l-1.1,1.2c-0.2,0.2-0.4,0.3-0.6,0.3c-0.2,0-0.4-0.1-0.6-0.2
	c-0.3-0.3-0.3-0.9,0-1.2l1.5-1.6v-2.7l-3,2.1L31,30c-0.1,0.4-0.4,0.7-0.8,0.7c-0.1,0-0.1,0-0.2,0c-0.5-0.1-0.7-0.6-0.6-1l0.3-1.6
	l-1.6-0.2c-0.5-0.1-0.8-0.5-0.7-1c0.1-0.5,0.5-0.8,0.9-0.7l2.2,0.3l3.3-2.4l-3.3-2.4l-2.2,0.3c0,0-0.1,0-0.1,0
	c-0.4,0-0.8-0.3-0.8-0.8c-0.1-0.5,0.3-0.9,0.7-1l1.6-0.2l-0.3-1.6c-0.1-0.5,0.2-0.9,0.6-1c0.5-0.1,0.9,0.2,1,0.7l0.5,2.2l3,2.1v-2.7
	L32.9,18c-0.3-0.3-0.3-0.9,0-1.2c0.3-0.3,0.9-0.3,1.2,0l1.1,1.2l1-1.2c0.3-0.4,0.8-0.4,1.2-0.1c0.4,0.3,0.4,0.9,0.1,1.2l-1.4,1.7
	v2.7l3-2.1l0.5-2.2c0.1-0.5,0.6-0.8,1-0.7c0.5,0.1,0.7,0.6,0.6,1l-0.3,1.6L42.4,20.1L42.4,20.1z M35.2,11.2
	c-6.8,0-12.3,5.7-12.3,12.7c0,7,5.5,12.7,12.3,12.7S47.6,31,47.6,24C47.6,16.9,42,11.2,35.2,11.2z M35.2,35c-5.9,0-10.7-4.9-10.7-11
	c0-6.1,4.8-11,10.7-11c5.9,0,10.7,4.9,10.7,11C45.9,30,41.1,35,35.2,35z M16.8,34.9c0,0.5-0.4,0.9-0.8,0.9H4.6
	c-0.5,0-0.8-0.4-0.8-0.9c0-0.5,0.4-0.9,0.8-0.9h11.4C16.4,34,16.8,34.4,16.8,34.9z M16.8,39.5c0,0.5-0.4,0.9-0.8,0.9H4.6
	c-0.5,0-0.8-0.4-0.8-0.9c0-0.5,0.4-0.9,0.8-0.9h11.4C16.4,38.6,16.8,39,16.8,39.5z M65.9,33.8h-12c-0.5,0-0.8,0.4-0.8,0.9v5.1
	c0,0.5,0.4,0.9,0.8,0.9h12c0.5,0,0.8-0.4,0.8-0.9v-5.1C66.8,34.2,66.4,33.8,65.9,33.8z M65.1,38.9H54.7v-3.3h10.3V38.9z"/>
</svg>
