<?xml version="1.0" encoding="utf-8"?>
<!-- Generator: Adobe Illustrator 24.3.0, SVG Export Plug-In . SVG Version: 6.00 Build 0)  -->
<svg version="1.1" id="Layer_1" xmlns="http://www.w3.org/2000/svg" xmlns:xlink="http://www.w3.org/1999/xlink" x="0px" y="0px"
	 viewBox="0 0 60.8 67.6" style="enable-background:new 0 0 60.8 67.6;" xml:space="preserve">
<style type="text/css">
	.st0{fill:#382B1E;}
</style>
<path class="st0" d="M3.1,0C1.4,0,0,1.4,0,3.1v59.4c0,0.9,0.6,1.6,1.4,1.8v2.9c0,0.1,0.1,0.3,0.2,0.4c0.1,0.1,0.2,0.2,0.4,0.2h56.9
	c0.1,0,0.3-0.1,0.4-0.2c0.1-0.1,0.2-0.2,0.2-0.4v-2.9c0.8-0.2,1.4-0.9,1.4-1.8V3.1c0-1.7-1.4-3.1-3.1-3.1L3.1,0z M3.1,1.1h54.6
	c1.1,0,2,0.9,2,2v8.8H1.1V3.1C1.1,2,2,1.1,3.1,1.1L3.1,1.1z M8.6,3.7c-0.8,0-1.4,0.6-1.4,1.4v2.7c0,0.8,0.6,1.4,1.4,1.4h14.7
	c0.8,0,1.4-0.6,1.4-1.4V5.1c0-0.8-0.6-1.4-1.4-1.4L8.6,3.7z M35.1,3.7c-1.4,0-2.6,1.2-2.6,2.7c0,1.5,1.2,2.7,2.7,2.7
	c1.5,0,2.7-1.2,2.7-2.7C37.8,4.9,36.6,3.7,35.1,3.7L35.1,3.7L35.1,3.7z M42.9,3.7c-1.4,0-2.6,1.2-2.6,2.7c0,1.5,1.2,2.7,2.7,2.7
	c1.5,0,2.7-1.2,2.7-2.7C45.7,4.9,44.5,3.7,42.9,3.7L42.9,3.7L42.9,3.7z M50.8,3.7c-1.4,0-2.6,1.2-2.6,2.7c0,1.5,1.2,2.7,2.7,2.7
	c1.5,0,2.7-1.2,2.7-2.7C53.6,4.9,52.4,3.7,50.8,3.7L50.8,3.7L50.8,3.7z M8.6,4.7h14.7c0.2,0,0.4,0.2,0.4,0.4v2.7
	c0,0.2-0.2,0.4-0.4,0.4l-14.7,0C8.4,8.2,8.3,8,8.3,7.8V5.1C8.3,4.9,8.4,4.7,8.6,4.7L8.6,4.7z M35.1,4.8L35.1,4.8
	c0.9,0,1.7,0.7,1.7,1.6S36,8,35.1,8s-1.6-0.7-1.6-1.6C33.5,5.5,34.2,4.8,35.1,4.8z M43,4.8L43,4.8c0.9,0,1.7,0.7,1.7,1.6
	S43.9,8,43,8c-0.9,0-1.6-0.7-1.6-1.6C41.4,5.5,42.1,4.8,43,4.8z M50.9,4.8L50.9,4.8c0.9,0,1.7,0.7,1.7,1.6S51.8,8,50.9,8
	c-0.9,0-1.6-0.7-1.6-1.6C49.3,5.5,50,4.8,50.9,4.8z M1.1,12.9h58.7v49.5c0,0.4-0.3,0.8-0.8,0.8H1.8c-0.4,0-0.8-0.3-0.8-0.8L1.1,12.9
	z M30.4,16.5c-11.9,0-21.6,9.7-21.6,21.6s9.7,21.6,21.6,21.6S52,50,52,38.1S42.3,16.5,30.4,16.5z M30.4,17.5
	c11.3,0,20.5,9.2,20.5,20.5s-9.2,20.5-20.5,20.5S9.9,49.4,9.9,38.1C9.9,26.7,19,17.5,30.4,17.5z M30.4,20.5
	c-9.7,0-17.5,7.9-17.5,17.5s7.9,17.5,17.5,17.5s17.5-7.9,17.5-17.5S40.1,20.5,30.4,20.5z M30.4,21.6c9,0,16.4,7.2,16.5,16.2
	c-0.7,0.6-1.8,1-2.9,1c-1.2,0-2.3-0.4-3-1.2l0,0c-1-0.9-2.3-1.5-3.8-1.5c-1.4,0-2.8,0.5-3.8,1.5c-0.7,0.7-1.9,1.2-3,1.2
	c-1.2,0-2.3-0.4-3-1.2h0c-1-0.9-2.3-1.5-3.8-1.5s-2.8,0.5-3.8,1.5c-0.7,0.7-1.9,1.2-3,1.2c-1.1,0-2.1-0.4-2.9-1
	C14,28.8,21.4,21.6,30.4,21.6L30.4,21.6z M23.6,37.3c1.2,0,2.3,0.4,3,1.2c1,0.9,2.3,1.5,3.8,1.5c1.4,0,2.8-0.5,3.8-1.5
	c0.7-0.7,1.9-1.2,3-1.2c1.2,0,2.3,0.4,3,1.2c1,0.9,2.3,1.5,3.8,1.5c1,0,2-0.3,2.8-0.7c-0.6,8.6-7.7,15.4-16.4,15.4
	c-8.7,0-15.9-6.8-16.4-15.4c0.8,0.5,1.8,0.7,2.8,0.7c1.4,0,2.8-0.5,3.8-1.5C21.3,37.7,22.4,37.3,23.6,37.3L23.6,37.3z M2.5,64.3
	h55.8v2.3H2.5L2.5,64.3z"/>
</svg>
