<?xml version="1.0" encoding="utf-8"?>
<!-- Generator: Adobe Illustrator 24.3.0, SVG Export Plug-In . SVG Version: 6.00 Build 0)  -->
<svg version="1.1" id="Layer_1" xmlns="http://www.w3.org/2000/svg" xmlns:xlink="http://www.w3.org/1999/xlink" x="0px" y="0px"
	 viewBox="0 0 86.1 75.5" style="enable-background:new 0 0 86.1 75.5;" xml:space="preserve">
<style type="text/css">
	.st0{fill:#382B1E;}
</style>
<path class="st0" d="M1,48.5c0,0,0-0.1,0-0.2l5-5.9L6,42.3c0.7-0.3,1.3-0.7,1.7-1.1c0.6-0.5,1-0.8,1.9-0.8c0.9,0,1.3,0.3,1.9,0.8
	c0.8,0.6,1.8,1.5,3.7,1.5s3-0.8,3.7-1.5c0.6-0.5,1-0.8,1.9-0.8c0.9,0,1.3,0.3,1.9,0.8c0.8,0.6,1.8,1.5,3.7,1.5c1.9,0,3-0.8,3.7-1.5
	c0.6-0.5,1-0.8,1.9-0.8c0.9,0,1.3,0.3,1.9,0.8c0.7,0.6,1.7,1.4,3.5,1.5v7.4c-0.7-0.1-1.1-0.4-1.6-0.8c-0.8-0.6-1.8-1.5-3.7-1.5
	s-3,0.8-3.7,1.5c-0.6,0.5-1,0.8-1.9,0.8s-1.3-0.3-1.9-0.8c-0.8-0.6-1.8-1.5-3.7-1.5c-1.9,0-3,0.8-3.7,1.5c-0.6,0.5-1,0.8-1.9,0.8
	s-1.3-0.3-1.9-0.8c-0.8-0.6-1.8-1.5-3.7-1.5s-3,0.8-3.7,1.5c-0.6,0.5-1,0.8-1.9,0.8s-1.3-0.3-1.9-0.8c-0.3-0.2-0.6-0.5-1-0.7
	C1.1,48.6,1,48.6,1,48.5L1,48.5z M19.5,51.2c-0.1,5.1-0.4,12.2-0.7,17.6h4.3c-0.3-5.3-0.6-12.3-0.7-17.6c-0.4-0.3-0.8-0.5-1.5-0.5
	C20.2,50.8,19.9,50.9,19.5,51.2L19.5,51.2z M1.1,38.3c0.4,0.2,0.7,0.5,1,0.7c0.6,0.5,1,0.8,1.9,0.8c0.9,0,1.3-0.3,1.9-0.8
	c0.8-0.6,1.8-1.5,3.7-1.5s3,0.8,3.7,1.5c0.6,0.5,1,0.8,1.9,0.8s1.3-0.3,1.9-0.8c0.8-0.6,1.8-1.5,3.7-1.5s3,0.8,3.7,1.5
	c0.6,0.5,1,0.8,1.9,0.8c0.9,0,1.3-0.3,1.9-0.8c0.8-0.6,1.8-1.5,3.7-1.5s3,0.8,3.7,1.5c0.6,0.5,0.9,0.7,1.6,0.8v-5.6l-7.4-8.7
	c-0.4,0-0.7,0.3-1.1,0.7c-0.7,0.7-1.6,1.5-3.4,1.5s-2.7-0.9-3.4-1.5c-0.6-0.5-0.8-0.7-1.4-0.7c-0.6,0-0.8,0.2-1.4,0.7
	c-0.7,0.7-1.6,1.5-3.4,1.5s-2.7-0.9-3.4-1.5c-0.5-0.5-0.7-0.7-1.2-0.7L1.1,38C1,38,1,38.1,1,38.1C1,38.2,1.1,38.2,1.1,38.3L1.1,38.3
	z M5.2,24.1c0.6,0.5,0.8,0.7,1.4,0.7s0.8-0.2,1.4-0.7c0.7-0.7,1.6-1.5,3.4-1.5s2.7,0.9,3.4,1.5c0.6,0.5,0.8,0.7,1.4,0.7
	c0.6,0,0.8-0.2,1.4-0.7c0.7-0.7,1.6-1.5,3.4-1.5s2.7,0.9,3.4,1.5c0.6,0.5,0.8,0.7,1.4,0.7s0.8-0.2,1.4-0.7c0.7-0.7,1.6-1.5,3.4-1.5
	c1.8,0,2.7,0.9,3.4,1.5c0.6,0.5,0.8,0.7,1.4,0.7c0.7,0,1.4-0.7,2-1.2c0.1-0.1,0.2-0.2,0.3-0.3V23c-0.8-0.3-1.4-0.8-1.9-1.4l-4.4-4.7
	c-0.2,0-0.3,0-0.5,0c-1.8,0-2.7-0.9-3.4-1.5c-0.6-0.5-0.8-0.8-1.4-0.8c-0.6,0-0.9,0.2-1.4,0.8c-0.7,0.6-1.6,1.5-3.4,1.5
	s-2.7-0.9-3.4-1.5c-0.6-0.5-0.8-0.8-1.4-0.8c-0.6,0-0.9,0.2-1.4,0.8c-0.7,0.6-1.6,1.5-3.4,1.5c-0.2,0-0.4,0-0.5,0l-5.9,6.3
	c-0.1,0.1-0.1,0.2-0.1,0.2c0,0.1,0,0.1,0.1,0.2C4.9,23.8,5.1,24,5.2,24.1L5.2,24.1z M84.2,71.7H1.9c-1,0-1.9,0.8-1.9,1.9
	c0,1,0.8,1.9,1.9,1.9h82.3c1,0,1.9-0.8,1.9-1.9C86.1,72.6,85.2,71.7,84.2,71.7z M43,68.8V23.3h-2.5v45.5H43z M80,68.8V23.3h-2.5
	v45.5H80z M55.3,23.3v33.1h-1.9v2.2c4.6,2.3,9,2.3,13.6,0v-2.2h-1.4V23.3h-1.3v33.1h-7.8V23.3H55.3z M11.1,14c0.6,0,0.9-0.2,1.4-0.8
	c0.7-0.6,1.6-1.5,3.4-1.5s2.7,0.9,3.4,1.5c0.6,0.5,0.8,0.8,1.4,0.8c0.6,0,0.9-0.2,1.4-0.8c0.7-0.6,1.6-1.5,3.4-1.5
	c1.8,0,2.7,0.9,3.4,1.5c0.6,0.5,0.8,0.8,1.4,0.8s0.9-0.2,1.4-0.8c0.2-0.2,0.5-0.5,0.9-0.8L22.6,0.8c-0.4-0.5-1-0.8-1.7-0.8
	s-1.2,0.3-1.7,0.8L8.8,12.5c0.4,0.2,0.6,0.5,0.9,0.8C10.2,13.8,10.5,14,11.1,14L11.1,14z M39,20.4h42.5c0.7,0,1.3-0.6,1.3-1.3
	c0-0.7-0.6-1.3-1.3-1.3H39c-0.7,0-1.3,0.6-1.3,1.3C37.7,19.8,38.3,20.4,39,20.4z"/>
</svg>
