<?xml version="1.0" encoding="utf-8"?>
<!-- Generator: Adobe Illustrator 24.3.0, SVG Export Plug-In . SVG Version: 6.00 Build 0)  -->
<svg version="1.1" id="Layer_1" xmlns="http://www.w3.org/2000/svg" xmlns:xlink="http://www.w3.org/1999/xlink" x="0px" y="0px"
	 viewBox="0 0 60.1 65.9" style="enable-background:new 0 0 60.1 65.9;" xml:space="preserve">
<style type="text/css">
	.st0{fill:#382B1E;}
</style>
<path class="st0" d="M26.2,35.4h31.8c0.9,0,1.5,0.7,1.5,1.5l0,0c0,0.9-0.7,1.5-1.5,1.5H26.2c-0.9,0-1.5-0.7-1.5-1.5l0,0
	C24.7,36.1,25.4,35.4,26.2,35.4z"/>
<path class="st0" d="M29.4,53.9c-0.6,1.3,0,2.8,1.3,3.4c1.3,0.6,2.8,0,3.4-1.3c0.3-0.7,0.3-1.4,0-2.1l-2.4-4.2L29.4,53.9z"/>
<path class="st0" d="M39.2,53.9c-0.6,1.3,0,2.8,1.3,3.4c1.3,0.6,2.8,0,3.4-1.3c0.3-0.7,0.3-1.4,0-2.1l-2.4-4.2L39.2,53.9z"/>
<path class="st0" d="M51.3,49.7L49,53.9c-0.6,1.3,0,2.8,1.3,3.4c1.3,0.6,2.8,0,3.4-1.3c0.3-0.7,0.3-1.4,0-2.1L51.3,49.7z"/>
<path class="st0" d="M34.3,62.3c-0.6,1.3,0,2.8,1.3,3.4c1.3,0.6,2.8,0,3.4-1.3c0.3-0.7,0.3-1.4,0-2.1L36.7,58L34.3,62.3z"/>
<path class="st0" d="M46.4,58l-2.4,4.2c-0.6,1.3,0,2.8,1.3,3.4c1.3,0.6,2.8,0,3.4-1.3c0.3-0.7,0.3-1.4,0-2.1L46.4,58z"/>
<path class="st0" d="M36.7,41.3l-2.4,4.2c-0.6,1.3,0,2.8,1.3,3.4c1.3,0.6,2.8,0,3.4-1.3c0.3-0.7,0.3-1.4,0-2.1L36.7,41.3z"/>
<path class="st0" d="M48.3,48.4c0.8-0.8,1-1.9,0.5-2.9l-2.4-4.2l-2.4,4.2c-0.6,1.3,0,2.8,1.3,3.4C46.4,49.3,47.5,49.1,48.3,48.4
	L48.3,48.4z"/>
<path class="st0" d="M37.6,19v3.5c-5.3,1.5-9.5,5.6-11.2,10.8h31.6c-1.8-5.4-6.3-9.5-11.9-10.8V19c0-6.5-3.1-11.7-11.7-11.7H8.5V0H0
	v65.9h8.5V15.7h25.8C36.8,15.7,37.6,17.2,37.6,19z"/>
</svg>
