<?xml version="1.0" encoding="utf-8"?>
<!-- Generator: Adobe Illustrator 24.3.0, SVG Export Plug-In . SVG Version: 6.00 Build 0)  -->
<svg version="1.1" id="Layer_1" xmlns="http://www.w3.org/2000/svg" xmlns:xlink="http://www.w3.org/1999/xlink" x="0px" y="0px"
	 viewBox="0 0 76.8 70.6" style="enable-background:new 0 0 76.8 70.6;" xml:space="preserve">
<style type="text/css">
	.st0{fill:#382B1E;}
</style>
<g>
	<path class="st0" d="M74.3,21.3H31.8V5h2.9c1.4,0,2.5-1.1,2.5-2.5S36.1,0,34.7,0H17.1c-0.5,0-0.8,0.4-0.8,0.8s0.4,0.8,0.8,0.8h17.5
		c0.5,0,0.8,0.4,0.8,0.8s-0.4,0.8-0.8,0.8H2.5C2,3.3,1.7,2.9,1.7,2.5S2,1.7,2.5,1.7h7.6c0.5,0,0.8-0.4,0.8-0.8S10.5,0,10.1,0H2.5
		C1.1,0,0,1.1,0,2.5S1.1,5,2.5,5h2.2v30.6c0,3.8,3.1,6.9,6.9,6.9h1.9L4.9,65.7H3.2c-1.4,0-2.5,1.1-2.5,2.5c0,1.4,1.1,2.5,2.5,2.5
		h61.2c1.4,0,2.5-1.1,2.5-2.5c0-1.4-1.1-2.5-2.5-2.5h-1.7l-8.4-23.3h9.6c4.3,0,7.7-3.5,7.7-7.7v-8.4h2.7c1.4,0,2.5-1.1,2.5-2.5
		C76.8,22.4,75.7,21.3,74.3,21.3z M65.2,68.2c0,0.5-0.4,0.8-0.8,0.8H3.2c-0.5,0-0.8-0.4-0.8-0.8c0-0.5,0.4-0.8,0.8-0.8h61.2
		C64.9,67.3,65.2,67.7,65.2,68.2C65.2,68.2,65.2,68.2,65.2,68.2L65.2,68.2z M61,65.7H6.7l8.7-23.8c0.1-0.2,0-0.5-0.1-0.7
		c-0.2-0.2-0.4-0.4-0.7-0.4h-3.1c-2.9,0-5.2-2.3-5.2-5.2V5h23.8v35.8h-5.3c-0.5,0-0.8,0.4-0.8,0.8c0,0.5,0.4,0.8,0.8,0.8h27.7
		L61,65.7z M70,34.7c0,3.3-2.7,6.1-6.1,6.1H31.8V26.2H70V34.7z M74.3,24.6H31.8v-1.7h42.5c0.5,0,0.8,0.4,0.8,0.8
		S74.8,24.6,74.3,24.6z M21.9,41.5c0,0.5-0.4,0.8-0.8,0.8s-0.8-0.4-0.8-0.8s0.4-0.8,0.8-0.8S21.9,41.1,21.9,41.5z M12.7,0.8
		C12.7,0.4,13,0,13.5,0c0.5,0,0.8,0.4,0.8,0.8s-0.4,0.8-0.8,0.8C13,1.7,12.7,1.3,12.7,0.8z M26,18c0-1.3-1.1-2.4-2.4-2.4h-2.1
		c-1.3-2.7-4.6-3.8-7.3-2.5s-3.8,4.6-2.5,7.3s4.6,3.8,7.3,2.5c1.1-0.5,2-1.4,2.5-2.5h2.1C24.9,20.4,26,19.3,26,18C26,18,26,18,26,18
		z M16.6,21.7c-2.1,0-3.8-1.7-3.8-3.8s1.7-3.8,3.8-3.8c1.2,0,2.2,0.5,3,1.4h-3.2c-1.3,0.1-2.3,1.2-2.2,2.5c0.1,1.2,1,2.2,2.2,2.2
		h3.2C18.8,21.2,17.8,21.7,16.6,21.7z M23.6,18.7h-7.2c-0.4,0-0.7-0.4-0.6-0.8c0-0.3,0.3-0.6,0.6-0.6h7.2c0.4,0,0.8,0.2,0.8,0.6
		c0,0.4-0.2,0.8-0.6,0.8C23.7,18.7,23.7,18.7,23.6,18.7z"/>
</g>
</svg>
